# xmcd
#
# Track frame offsets: 
#        150
#        16216
#        34370
#        50436
#
# Disc length: 914 seconds
#
# Revision: 5
# Processed by: cddbd v1.5.2PL0 Copyright (c) Steve Scherf et al.
# Submitted via: ExactAudioCopy v1.0b3
#
DISCID=2b039004
DTITLE=雪音クリス（高垣彩陽） - 戦姫絶唱シンフォギアG キャラクターソング6
DYEAR=2013
DGENRE=Anime
TTITLE0=Bye-Bye Lullaby
TTITLE1=教室モノクローム
TTITLE2=Bye-Bye Lullaby（off vocal）
TTITLE3=教室モノクローム（off vocal）
EXTD=YEAR: 2013
EXTT0=
EXTT1=
EXTT2=
EXTT3=
PLAYORDER=
